<?xml version="1.0" standalone="no"?>
<!DOCTYPE svg PUBLIC "-//W3C//DTD SVG 20010904//EN"
 "http://www.w3.org/TR/2001/REC-SVG-20010904/DTD/svg10.dtd">
<svg version="1.0" xmlns="http://www.w3.org/2000/svg"
 width="16.000000pt" height="16.000000pt" viewBox="0 0 16.000000 16.000000"
 preserveAspectRatio="xMidYMid meet">
<metadata>
Created by potrace 1.11, written by Peter Selinger 2001-2013
</metadata>
<g transform="translate(0.000000,16.000000) scale(0.002286,-0.002286)"
fill="#000000" stroke="none">
<path d="M1815 6326 c-171 -45 -290 -163 -371 -367 -87 -218 -94 -512 -20
-796 149 -569 522 -983 887 -983 99 0 169 20 244 72 162 110 254 288 289 558
2 19 5 37 5 40 4 22 50 -82 92 -210 49 -151 102 -305 119 -345 4 -11 27 -72
50 -135 23 -63 55 -149 71 -190 16 -41 46 -122 68 -179 l38 -104 -32 -71 c-18
-39 -49 -106 -69 -149 -20 -43 -36 -80 -36 -82 0 -2 -15 -36 -34 -77 -19 -40
-82 -185 -141 -323 -58 -137 -110 -259 -115 -270 -24 -51 -215 -531 -281 -705
-21 -58 -43 -114 -48 -125 -11 -23 -151 -408 -210 -575 -79 -226 -191 -563
-187 -567 2 -2 27 34 57 79 69 106 78 120 86 138 3 8 25 49 48 90 23 41 66
120 95 175 29 55 70 132 90 170 54 101 391 774 440 880 24 50 67 142 98 205
90 189 142 300 187 400 45 100 88 195 158 347 38 84 57 111 57 83 0 -22 214
-547 343 -840 88 -202 190 -424 272 -595 43 -88 102 -212 132 -275 56 -117
227 -459 350 -697 37 -73 71 -133 76 -133 23 0 -6 113 -119 459 -199 614 -378
1122 -529 1506 -24 61 -60 153 -80 205 -61 154 -189 464 -253 611 l-59 135 54
125 c120 277 295 727 363 933 22 65 35 94 41 85 4 -8 24 -73 44 -144 51 -180
98 -276 171 -350 100 -101 214 -146 357 -141 200 8 399 128 585 354 168 204
286 462 353 772 33 154 33 389 -1 521 -38 151 -113 287 -205 372 -121 112
-310 139 -505 74 -142 -48 -357 -236 -482 -422 -74 -111 -156 -271 -212 -415
-20 -52 -84 -185 -142 -295 -121 -231 -391 -770 -481 -960 -33 -71 -70 -135
-81 -142 -18 -11 -22 -5 -52 75 -18 48 -40 105 -50 127 -10 22 -32 74 -50 115
-18 41 -66 145 -108 230 -339 703 -341 706 -427 921 -78 193 -122 280 -193
387 -169 252 -420 425 -622 430 -41 0 -97 -5 -125 -12z m207 -111 c215 -65
414 -263 552 -550 68 -143 127 -320 141 -425 2 -14 6 -38 9 -55 3 -16 8 -45
11 -64 14 -83 11 -240 -6 -343 -61 -357 -265 -546 -514 -477 -166 45 -325 176
-459 376 -117 177 -218 431 -242 616 -3 23 -10 62 -14 87 -14 78 -5 347 14
425 55 220 156 355 305 410 48 18 145 18 203 0z m3160 -33 c111 -55 200 -165
249 -309 20 -59 23 -91 25 -238 2 -156 -2 -199 -32 -373 -11 -67 -77 -251
-123 -347 -177 -365 -441 -598 -692 -610 -118 -5 -193 25 -276 113 -84 88
-131 200 -158 377 -3 22 -6 87 -5 145 1 176 31 323 107 530 133 358 366 623
643 731 74 29 181 21 262 -19z"/>
<path d="M2940 2061 c-4 -9 -11 -33 -15 -54 l-7 -37 43 -1 c141 -4 942 0 946
5 3 3 -3 27 -14 53 l-19 48 -463 1 c-417 1 -463 0 -471 -15z"/>
</g>
</svg>
