<svg xmlns="http://www.w3.org/2000/svg" viewBox="0 0 2215.76 500.13">
  <g id="logo">
    <path d="M558.79,0h2.62c15.74,1.16,29.67,10.28,40.28,21.47,13.21,13.96,22.47,31.27,28.68,49.37,1.58,4.44,2.45,9.15,4.52,13.41,18.89,37.01,36.4,74.7,52.88,112.84,13.68-29.5,27.98-58.71,42.97-87.56,4.86-9.69,10.45-19.03,15.07-28.84,8.03-25.26,21.59-49.73,42.76-66.28,10.93-8.39,24.62-14.43,38.66-13.04,11.91,1.15,22.57,8.57,28.98,18.48,8.49,13,11.32,28.87,11.37,44.18-.03,20.09-4.88,40.03-13.02,58.34-7.82,17.29-18.66,33.55-33.36,45.74-10.67,8.78-23.97,15.4-38.06,15.09-11.89-.21-23.11-6.68-30.11-16.14-9.26-12.39-12.62-28.15-13.14-43.35-12.17,34.51-25.75,68.52-39.75,102.33,18.35,43.7,35.6,87.88,51.53,132.53,13.93,39.37,27.15,79.05,37.76,119.46-20.18-35.83-38.02-72.91-55.15-110.28-16.68-36.51-32.32-73.49-47.28-110.73-18.47,42.92-38,85.4-58.78,127.26-15.89,31.75-32.3,63.27-50.53,93.75,2.56-9.05,5.42-18.02,8.28-26.98,24.89-76.38,55.41-150.81,88.14-224.13,.87-1.7-.44-3.47-.87-5.11-12.51-32.31-24.23-64.92-35.12-97.8-.93,14.76-4.27,29.89-12.79,42.23-6.67,9.75-17.4,17.07-29.36,17.99-13.29,1.09-26.17-4.69-36.43-12.76-14.56-11.55-25.09-27.44-32.68-44.24-9.61-21.61-14.62-45.52-12.96-69.2,1.14-14.61,4.87-29.57,13.77-41.48,7.12-9.65,18.48-16.38,30.64-16.55m-6.67,10.81c-9.54,2.55-16.58,10.45-20.78,19.06-7.25,14.86-8.52,31.92-7.12,48.18,2.11,21.72,9.04,43.09,20.68,61.58,7.89,12.3,18,23.69,31.07,30.57,8.36,4.45,18.63,6.09,27.57,2.4,9.61-3.81,15.95-12.83,19.73-22.09,6.37-15.93,6.85-33.6,4.6-50.42-2.96-20.48-10.04-40.52-21.55-57.78-7.47-11.05-16.82-21.24-28.64-27.69-7.69-4.24-16.96-6.3-25.56-3.81m263.96,.87c-11.3,2.61-21.04,9.62-29.2,17.64-14.88,14.82-25.01,33.89-31.12,53.86-5.16,17.19-7.43,35.54-4.42,53.34,1.93,10.77,6,21.71,14.15,29.35,7.15,6.75,17.8,9.08,27.26,6.72,11.38-2.75,21.13-9.93,29.31-18.06,14.62-14.82,24.61-33.73,30.63-53.54,5.18-17.38,7.45-35.96,4.22-53.92-2.01-10.68-6.2-21.5-14.41-28.94-7.04-6.38-17.25-8.6-26.42-6.45Z"/>
    <path d="M937.54,245.37c8.42-8.64,20.7-12.53,32.56-12.58,12.03-.41,25.06,1.55,34.47,9.67,6.86,5.95,11.83,14.18,13.88,23.03-4.14,1.79-8.24,3.65-12.36,5.48-2.79-9.27-8.23-18.05-16.46-23.38-2.57-1.45-5.27-3.19-8.36-2.89,1.08-.36,3.25-1.08,4.34-1.44-2.21,.14-4.42,.87-6.62,.33-7.95-1.39-16.73-1.1-23.67,3.48-7.6,4.28-11.37,14.9-7.04,22.71,3.63,6.27,9.72,10.56,15.7,14.41,14.31,8.7,30.06,15.15,43.21,25.69,7.46,5.95,13.87,14.23,14.54,24.07,.55,10.32-2.79,21.13-10.16,28.56-13.49,13.44-34.32,15.21-52.22,12.31-.03-.15-.08-.45-.1-.6,.86-.34,2.59-1.02,3.45-1.36-1.68,.28-3.35,.61-5,.98-.05,.22-.15,.64-.21,.86-.85-.31-2.57-.92-3.42-1.23,1.11-.47,2.23-.98,3.33-1.5-1.44,.28-2.84,.65-4.23,1.05-13.55-4.44-23.18-16.57-27.63-29.74,4.22-2.14,8.68-3.75,13.05-5.54,2.77,8.71,7.92,16.92,15.62,22.06,9.93,6.75,23.34,8.17,34.42,3.51,5.53-2.37,10.45-6.85,12.1-12.78,1.52-6,.24-12.77-3.74-17.57-5.56-6.87-13.19-11.74-20.99-15.71,.69-.26,2.08-.77,2.77-1.03-1.22,.23-3.67,.68-4.89,.9l2.8-2.19c-1.03,.34-2.05,.69-3.05,1.04-5.43-2.9-10.8-5.91-16.29-8.67,0-.52,.03-1.05,.07-1.56-.69-.62-1.35-1.24-2-1.87,.04,.76,.12,2.3,.16,3.06-2.29-2.48-5.49-3.85-8.34-5.57,.63-.33,1.89-1,2.51-1.34-.7,.23-2.11,.69-2.81,.92-2.38-1.75-4.64-3.63-6.97-5.42l2.08-1.42-2.6,.75c-4.96-4.96-9.42-10.91-10.78-17.93-2.22-11.1,.61-23.52,8.88-31.55"/>
    <path d="M2087.75,254.61c14.09-14.31,34.24-22.31,54.3-21.87,19.53-.23,39.06,7.58,52.93,21.36,11.81,11.51,19.35,27.37,20.53,43.85,.73,7.96-.21,15.97-1.86,23.77l-.88-.12c.1,.77,.3,2.3,.4,3.06-.35-.01-1.05-.04-1.4-.05,.09,.98,.22,1.96,.38,2.94-.54,.11-1.61,.34-2.15,.45,.41,.09,1.22,.26,1.63,.34-1.49,3.34-2.92,6.72-4.85,9.82l.48-.49c-9.8,17.98-27.26,31.51-47.23,36.17-2.46,.35-5.22,1.89-7.5,.44l.15,1.07c-6.89,.76-13.85,.86-20.74,.11-.9-.73-1.68-1.52-2.62-2.12-.45,.58-.86,1.18-1.23,1.79-14.17-3.19-28.05-9.28-38.4-19.72-14.85-14.15-23.3-34.81-21.98-55.35,.63-16.96,8.03-33.49,20.04-45.45m46.36-13.5c-8.5,1.15-16.55,5.23-22.52,11.38-11.09,11.34-15.15,27.57-16.38,42.94-.96,16.81,.72,34.44,8.71,49.52,5.17,9.95,14.12,18.08,25.02,21.15,11.27,3.09,23.99,2.2,34.12-3.92,13.78-8.25,21.04-23.91,23.63-39.24,2.88-17.5,2.33-35.98-3.88-52.72-3.75-10.19-10.79-19.29-20.28-24.71-8.57-4.84-18.82-5.64-28.42-4.4Z"/>
    <path d="M.05,236.55c39.98-.12,79.95-.02,119.93-.05,0,3.28,.01,6.57,0,9.85-16.06,.11-32.12,0-48.18,.05v126.79c-7.83-.01-15.66,.02-23.49-.02-.01-42.26,.02-84.52-.02-126.77-16.08,0-32.17,.01-48.26,0-.03-3.28-.04-6.56,.03-9.84Z"/>
    <path d="M248.56,236.52c7.81-.06,15.63,0,23.45-.04,.06,45.57,0,91.14,.03,136.71-7.86-.03-15.72,.06-23.58-.05,.08-45.54-.1-91.08,.1-136.62Z"/>
    <path d="M413.67,236.52c7.78-.06,15.57,.02,23.36-.05-.12,42.33,.02,84.65-.07,126.97,22.48-.01,44.96,0,67.45,0-.01,3.2-.02,6.4,.02,9.61-30.27,.32-60.56,.05-90.83,.13-.02-45.55-.16-91.11,.07-136.66Z"/>
    <path d="M1142.38,236.13c39.94-.11,79.88-.05,119.82-.03,.01,3.29,.01,6.59,.02,9.88-16.06-.07-32.11,0-48.16-.03-.01,42.31,.02,84.61-.01,126.92-7.8,.03-15.6,.01-23.4,.02,0-42.31,0-84.63,.01-126.94-16.11,0-32.21,0-48.31,0-.02-3.27-.04-6.54,.03-9.82Z"/>
    <path d="M1388.61,236.16c7.81-.16,15.62-.07,23.44-.06,.04,25.31,0,50.61,.02,75.92,.16,8.3-.78,16.81,1.75,24.87,2.73,10.01,9.26,19.11,18.55,23.97,16.91,9.62,40.95,6.12,52.98-9.66,6.43-7.87,8.76-18.18,8.83-28.15,.04-28.99,.03-57.97,0-86.96,3.55-.02,7.11-.04,10.68,.04,.09,29.3,0,58.61,.04,87.91-.05,11.26-2.77,22.91-9.73,31.98-8.44,11.21-22.11,17.29-35.75,19.11-12.56,1.59-25.64,1.27-37.7-2.91-9.38-3.58-18.04-9.53-23.93-17.74-6.16-8.49-9.19-19.01-9.21-29.45,0-29.62-.03-59.25,.02-88.87Z"/>
    <path d="M1644.26,236.09c15.26-.07,30.54-.02,45.81-.02,17.89,.29,36.77,2.01,52.43,11.46,13.5,8.85,24.07,22.64,27.71,38.5,4.74,19.97,1.31,42.33-11.29,58.83-9.96,13.46-25.5,21.9-41.57,25.7-12.54,2.99-25.5,2.24-38.27,2.33-11.62-.02-23.23,.03-34.84-.03-.03-45.59-.06-91.18,.02-136.77m23.4,11.12c.11,38.26,.02,76.53,.05,114.8,7.46-.01,14.93,0,22.4,0,10.92-.09,22.06-2.59,31.22-8.73,12.9-8.47,20.97-23.13,22.83-38.28,1.85-14.02,.47-29.02-6.64-41.47-7.06-12.73-19.8-21.87-33.93-25.11-.16-.37-.5-1.12-.66-1.49-.05,.36-.14,1.07-.18,1.43-11.56-2.16-23.41-1.14-35.09-1.15Z"/>
    <path d="M1908.34,236.1c7.79-.06,15.59-.07,23.39,0,.06,45.59,.04,91.18,.01,136.77-7.81,.01-15.61,.07-23.41-.03-.04-45.58-.06-91.16,.01-136.74Z"/>
    <path d="M644.34,363.43c27.25,0,54.51,.02,81.76,0,.07,3.25,.05,6.51,.05,9.77-27.27-.01-54.55,.01-81.82-.01,0-3.25,0-6.5,.01-9.75Z"/>
    <path d="M1581.76,500.02c.03-24.33,.01-48.67,.02-73,2.83,.01,5.68,.01,8.54,0,.13,24.37,.04,48.74,.05,73.11-2.88,.01-5.76,.03-8.61-.1Z"/>
    <path d="M1314.47,441.79c1.73,0,3.48,.02,5.25,.02,7.08,13.49,14.11,27,21.16,40.5-4.06,.01-8.12-.01-12.16,.01-1.88-3.49-3.71-7.01-5.59-10.49-5.5,0-11,.02-16.49,0-2,3.5-3.8,7.11-5.92,10.54-2.81-.06-5.62-.05-8.41-.05,7.39-13.51,14.67-27.07,22.16-40.52m-5.24,25.35c3.82-.01,7.66-.01,11.5-.01-1.89-3.61-3.74-7.23-5.67-10.8-1.99,3.58-3.91,7.19-5.83,10.81Z"/>
    <path d="M1756.93,441.82c1.77-.01,3.57-.01,5.38-.02,7.08,13.48,14.16,26.96,21.14,40.49-4.04,.04-8.07-.01-12.1,.05-1.97-3.44-3.78-6.97-5.6-10.49-5.49-.05-10.96,0-16.43-.04-1.93,3.45-3.85,6.89-5.64,10.41-2.97,.13-5.95,.1-8.89,.08,.5-2.06,1.66-3.09,3.47-3.12-.38-.16-1.12-.49-1.5-.66,6.94-12.11,13.41-24.49,20.17-36.7m-5.07,25.31c3.83,0,7.66,0,11.5,.01-1.98-3.56-3.82-7.18-5.68-10.78-1.91,3.61-3.87,7.19-5.82,10.77Z"/>
    <path d="M1191.14,442.54c3.91,.03,7.82,0,11.75,.03,.04,5.66,.02,16.43,.02,16.43h16.65c0-5.73-.01-11.46,0-17.19,3.91,0,7.84-.02,11.77,.02-.03,13.4-.01,26.78-.02,40.17h-11.73c0-5.99,0-12,0-18h-16.66v18.3c-3.97,.02-7.93,.01-11.88,.01-.03-13.26,.2-26.51,.11-39.77Z"/>
    <path d="M1402.46,442.56c3.86,0,7.72,.01,11.59-.02,.23,13.26,.04,26.52,.1,39.77-3.9,0-7.8,0-11.68,.01-.02-13.26-.01-26.51-.01-39.76Z"/>
    <path d="M1481.38,442.6c7.04,0,14.1-.24,21.13,.16,5.06,.55,11.1,2.38,13.11,7.61,.64,2.46,.81,5.43-.77,7.6-1.95,2.93-5.26,4.45-8.4,5.7,5.4,6.14,10.61,12.44,15.95,18.64-4.44,0-8.86,.02-13.28-.02-5.28-5.88-9.87-12.48-15.68-17.82-.21,5.94-.06,11.89-.1,17.84-4.02-.01-8.03,.06-12.03-.08,.06-13.21-.08-26.42,.07-39.63m11.98,4.58c-.04,4.45-.05,8.91,.01,13.37,2.77-.23,5.91-.15,8.19-2.06,3.03-2.35,2.82-7.62-.28-9.81-2.27-1.66-5.29-1.36-7.92-1.5Z"/>
    <path d="M1642.57,442.57c3.76-.02,7.54-.02,11.32,0,4.99,8.67,9.98,17.34,15.03,25.99,4.92-8.69,9.8-17.39,14.82-26.02,3.68,.03,7.36,.02,11.05,.02v39.75c-3.97,0-7.94,.02-11.89-.02,0-7.93-.05-15.86,.03-23.79-4.46,7.97-9.03,15.87-13.54,23.82-1.63-.01-3.23-.02-4.82-.02-4.75-7.98-9.35-16.05-14.12-24.01-.03,8.01-.01,16.01-.01,24.02-2.65,0-5.28,0-7.89-.01,0-13.24-.03-26.49,.02-39.73Z"/>
    <path d="M1823.79,442.56c3.95,0,7.91-.01,11.89,.02,.07,4.67,.02,9.35,.04,14.02,6.26-4.69,12.57-9.33,18.83-14.03,3.34-.01,6.69-.02,10.05,0-7.46,5.79-15.13,11.32-22.74,16.92,9.51,7.59,19.05,15.16,28.53,22.81-4.88,.01-9.75-.01-14.62,.01-6.75-5.26-13.34-10.71-20.07-15.99,.03,5.32,.02,10.64,.01,15.96-3.98,.04-7.96,.02-11.92,.02v-39.75Z"/>
    <path d="M2090.18,443.01c3.94-.02,7.89-.01,11.85-.01,.02,6.16,.01,12.31,.02,18.47,.06,4.03-.46,8.18,1.01,12.05,3.64,6.12,13.15,7.22,17.98,1.97,3.09-3.19,2.77-7.93,2.74-12.02-.02-6.82-.01-13.65,0-20.47h7.69c-.02,8.48,.01,16.97-.01,25.45,.12,4.74-2.33,9.51-6.49,11.87-6,3.55-13.3,3.7-20.03,2.92-6.72-1.03-13.7-5.54-14.67-12.74-.27-9.16-.06-18.33-.09-27.49Z"/>
    <path d="M2177.71,442.56c7.84,.27,15.81-.71,23.56,.89,4.28,1.03,8.99,3.44,10.27,8.02,1.56,4.68-1.53,9.6-5.7,11.66-4.95,2.68-10.76,2.11-16.17,2.19-.01,5.66,.03,11.32-.02,16.98-3.99,.02-7.97,.01-11.93,.01-.01-13.25-.01-26.5-.01-39.75m11.99,4.58c-.05,4.6-.04,9.2-.01,13.8,2.16-.13,4.47,.14,6.53-.83,3.77-2.24,4.24-8.29,.95-11.16-2.09-1.72-4.95-1.64-7.47-1.81Z"/>
    <path d="M1908.89,442h40.32c-.02,1.46-.02,2.92,0,4.38-8.79,.03-17.58,0-26.35,.01,0,3.93,0,7.86,0,11.79,7.33,.06,14.66-.02,22,.05-.03,1.42-.04,2.84-.03,4.26-7.32,.05-14.65,.01-21.96,.02,0,4.83,0,9.65,0,14.48h26.35c-.01,1.66-.02,3.33,.02,5h-40.31c-.01-5.13-.02-10.27,.01-15.41-.04-5.03-.02-10.06-.01-15.09-.02-2.02-.01-4.04,.01-6.04-.01-.87-.03-2.6-.04-3.46Z"/>
    <path d="M2004.17,458.14c9.2-.1,18.4-.04,27.6-.03,0,2.54,0,5.09-.02,7.65-9.2,.08-18.4,.07-27.59,0-.06-2.55-.06-5.09,.01-7.63Z"/>
  </g>
</svg>