<svg xmlns="http://www.w3.org/2000/svg" viewBox="0 0 155.53 207.77">
  <g id="scissors" fill="#585858">
    <path d="M12.78,1.97C18.61-1.53,25.88,.04,31.34,3.46c9.49,6.01,15.66,15.98,19.63,26.26,5.41,14.16,12.79,27.43,19.04,41.21,2.05,4.8,3.93,9.66,6.03,14.43,3.07-3.56,4.49-8.13,6.66-12.23,5.45-11.68,11.4-23.12,17.41-34.52,2.46-4.49,3.77-9.49,6.25-13.96,4.42-8.66,10.69-16.76,19.31-21.54,6.03-3.16,13.95-3.66,19.72,.35,4.73,3.48,7.6,8.99,9.04,14.58,1.71,7.85,1.47,16.15-.97,23.82-3.2,13.58-10.98,26.49-22.82,34.18-6.81,4.43-16.79,4.95-22.98-.85-5.93-4.98-6.81-13.16-9.12-20.08-5.09,14.56-10.67,28.92-16.76,43.09,13.74,31.64,25.64,64.05,35.98,96.95,1.04,3.75,3.16,7.39,2.53,11.41-16.37-30.86-31.14-62.58-43.85-95.13-9.71,20.38-18.72,41.09-29.1,61.15-4.46,9.14-9.5,17.97-14.26,26.96-1.5,2.9-3.35,5.6-5.28,8.23,12.18-37.34,26.64-73.91,43.01-109.61-3.65-9.86-7.55-19.63-10.8-29.63-1.75-4.62-2.72-9.59-5.44-13.78-.72,7.52-2.72,15.5-8.57,20.73-5.31,5.58-14.24,5.46-20.7,2.03-9.11-4.67-15.12-13.62-19.39-22.64C.92,43.34-1.83,30.18,1.38,17.8,3.24,11.51,6.41,4.73,12.78,1.97m2.77,3.01C7.3,8.66,4.89,18.43,4.33,26.63c-.47,15.54,4.98,31.69,16.29,42.61,4.33,4.25,10.33,7.36,16.53,6.56,5.55-1.1,9.22-6.08,11.15-11.07,2.2-6.08,3.07-12.73,1.94-19.13-1.28-13.9-7.32-27.85-18.28-36.81-4.54-3.43-10.81-6.21-16.41-3.81m116.93-.14c-13.85,4.64-22.76,18.15-26.42,31.73-2.88,9.19-3.98,19.5-.34,28.65,2.16,4.99,6.5,10.05,12.35,10.16,6.82,.34,12.88-3.85,17.54-8.42,11.32-12.02,17.09-29.05,15.32-45.47-.48-9.05-8.69-18.85-18.45-16.65Z" />
    <path d="M58.14,157.73c11.47,.01,22.94-.02,34.41,.02,.49,1.29,.98,2.59,1.47,3.89-12.33,.25-24.66,.28-36.99,.09,.37-1.34,.74-2.66,1.11-4Z" />
  </g>
</svg>